Plot:
Katherine's mind games are getting on everyone's nerves, but Damon, Stefan and Elena realize that her knowledge of Mystic Falls history will help them stay alive. Frustrated with her relationship with Matt, Caroline finds a new way to get his attention. Alaric makes a surprising confession to Jenna, and Katherine makes a different kind of confession to Damon. Stefan and Bonnie try to convince Jonas and Luka that they should all be working together, but Jonas' lack of trust leads to a violent and fiery confrontation.

General:
Format : Matroska
File size : 343 MiB
Duration : 40mn 23s
Overall bit rate : 1 189 Kbps
Writing application : Lavf52.13.0
Writing library : Lavf52.13.0

Video:
ID : 1
Format : MPEG-4 Visual
Format profile : Simple@L1
Format settings, BVOP : No
Format settings, QPel : No
Format settings, GMC : No warppoints
Format settings, Matrix : Default (H.263)
Codec ID : V_MPEG4/ISO/ASP
Codec ID/Info : Advanced Simple Profile
Duration : 40mn 23s
Bit rate : 973 Kbps
Width : 624 pixels
Height : 352 pixels
Display aspect ratio : 16:9
Frame rate mode : Constant
Frame rate : 23.976 fps
Color space : YUV
Chroma subsampling : 4:2:0
Bit depth : 8 bits
Scan type : Progressive
Compression mode : Lossy
Bits/(Pixel*Frame) : 0.185
Stream size : 281 MiB (82%)
Writing library : Lavc51.54.0
Language : English

Audio:
ID : 2
Format : MPEG Audio
Format version : Version 1
Format profile : Layer 3
Mode : Joint stereo
Mode extension : MS Stereo
Codec ID : A_MPEG/L3
Codec ID/Hint : MP3
Duration : 40mn 23s
Bit rate mode : Constant
Bit rate : 192 Kbps
Channel(s) : 2 channels
Sampling rate : 44.1 KHz
Compression mode : Lossy
Stream size : 55.5 MiB (16%)
Language : English